<svg t="1593959933927" class="icon" viewBox="0 0 1024 1024" version="1.1" xmlns="http://www.w3.org/2000/svg" p-id="1822" width="48" height="48"><path d="M21.333333 0v1024" fill="" p-id="1823"></path><path d="M42.666667 0v1024" fill="" p-id="1824"></path><path d="M64 0v1024" fill="" p-id="1825"></path><path d="M85.333333 0v1024" fill="" p-id="1826"></path><path d="M106.666667 0v1024" fill="" p-id="1827"></path><path d="M128 0v1024" fill="" p-id="1828"></path><path d="M149.333333 0v1024" fill="" p-id="1829"></path><path d="M170.666667 0v1024" fill="" p-id="1830"></path><path d="M192 0v1024" fill="" p-id="1831"></path><path d="M213.333333 0v1024" fill="" p-id="1832"></path><path d="M234.666667 0v1024" fill="" p-id="1833"></path><path d="M256 0v1024" fill="" p-id="1834"></path><path d="M277.333333 0v1024" fill="" p-id="1835"></path><path d="M298.666667 0v1024" fill="" p-id="1836"></path><path d="M320 0v1024" fill="" p-id="1837"></path><path d="M341.333333 0v1024" fill="" p-id="1838"></path><path d="M362.666667 0v1024" fill="" p-id="1839"></path><path d="M384 0v1024" fill="" p-id="1840"></path><path d="M405.333333 0v1024" fill="" p-id="1841"></path><path d="M426.666667 0v1024" fill="" p-id="1842"></path><path d="M448 0v1024" fill="" p-id="1843"></path><path d="M469.333333 0v1024" fill="" p-id="1844"></path><path d="M490.666667 0v1024" fill="" p-id="1845"></path><path d="M512 0v1024" fill="" p-id="1846"></path><path d="M533.333333 0v1024" fill="" p-id="1847"></path><path d="M554.666667 0v1024" fill="" p-id="1848"></path><path d="M576 0v1024" fill="" p-id="1849"></path><path d="M597.333333 0v1024" fill="" p-id="1850"></path><path d="M618.666667 0v1024" fill="" p-id="1851"></path><path d="M640 0v1024" fill="" p-id="1852"></path><path d="M661.333333 0v1024" fill="" p-id="1853"></path><path d="M682.666667 0v1024" fill="" p-id="1854"></path><path d="M704 0v1024" fill="" p-id="1855"></path><path d="M725.333333 0v1024" fill="" p-id="1856"></path><path d="M746.666667 0v1024" fill="" p-id="1857"></path><path d="M768 0v1024" fill="" p-id="1858"></path><path d="M789.333333 0v1024" fill="" p-id="1859"></path><path d="M810.666667 0v1024" fill="" p-id="1860"></path><path d="M832 0v1024" fill="" p-id="1861"></path><path d="M853.333333 0v1024" fill="" p-id="1862"></path><path d="M874.666667 0v1024" fill="" p-id="1863"></path><path d="M896 0v1024" fill="" p-id="1864"></path><path d="M917.333333 0v1024" fill="" p-id="1865"></path><path d="M938.666667 0v1024" fill="" p-id="1866"></path><path d="M960 0v1024" fill="" p-id="1867"></path><path d="M981.333333 0v1024" fill="" p-id="1868"></path><path d="M1002.666667 0v1024M0 21.333333h1024" fill="" p-id="1869"></path><path d="M0 42.666667h1024" fill="" p-id="1870"></path><path d="M0 64h1024" fill="" p-id="1871"></path><path d="M0 85.333333h1024" fill="" p-id="1872"></path><path d="M0 106.666667h1024" fill="" p-id="1873"></path><path d="M0 128h1024" fill="" p-id="1874"></path><path d="M0 149.333333h1024" fill="" p-id="1875"></path><path d="M0 170.666667h1024" fill="" p-id="1876"></path><path d="M0 192h1024" fill="" p-id="1877"></path><path d="M0 213.333333h1024" fill="" p-id="1878"></path><path d="M0 234.666667h1024" fill="" p-id="1879"></path><path d="M0 256h1024" fill="" p-id="1880"></path><path d="M0 277.333333h1024" fill="" p-id="1881"></path><path d="M0 298.666667h1024" fill="" p-id="1882"></path><path d="M0 320h1024" fill="" p-id="1883"></path><path d="M0 341.333333h1024" fill="" p-id="1884"></path><path d="M0 362.666667h1024" fill="" p-id="1885"></path><path d="M0 384h1024" fill="" p-id="1886"></path><path d="M0 405.333333h1024" fill="" p-id="1887"></path><path d="M0 426.666667h1024" fill="" p-id="1888"></path><path d="M0 448h1024" fill="" p-id="1889"></path><path d="M0 469.333333h1024" fill="" p-id="1890"></path><path d="M0 490.666667h1024" fill="" p-id="1891"></path><path d="M0 512h1024" fill="" p-id="1892"></path><path d="M0 533.333333h1024" fill="" p-id="1893"></path><path d="M0 554.666667h1024" fill="" p-id="1894"></path><path d="M0 576h1024" fill="" p-id="1895"></path><path d="M0 597.333333h1024" fill="" p-id="1896"></path><path d="M0 618.666667h1024" fill="" p-id="1897"></path><path d="M0 640h1024" fill="" p-id="1898"></path><path d="M0 661.333333h1024" fill="" p-id="1899"></path><path d="M0 682.666667h1024" fill="" p-id="1900"></path><path d="M0 704h1024" fill="" p-id="1901"></path><path d="M0 725.333333h1024" fill="" p-id="1902"></path><path d="M0 746.666667h1024" fill="" p-id="1903"></path><path d="M0 768h1024" fill="" p-id="1904"></path><path d="M0 789.333333h1024" fill="" p-id="1905"></path><path d="M0 810.666667h1024" fill="" p-id="1906"></path><path d="M0 832h1024" fill="" p-id="1907"></path><path d="M0 853.333333h1024" fill="" p-id="1908"></path><path d="M0 874.666667h1024" fill="" p-id="1909"></path><path d="M0 896h1024" fill="" p-id="1910"></path><path d="M0 917.333333h1024" fill="" p-id="1911"></path><path d="M0 938.666667h1024" fill="" p-id="1912"></path><path d="M0 960h1024" fill="" p-id="1913"></path><path d="M0 981.333333h1024" fill="" p-id="1914"></path><path d="M0 1002.666667h1024" fill="" p-id="1915"></path><path d="M726 768q34 0 59 26t25 60-25 59-59 25-60-25T640 854t26-60 60-26zM42 86h140l40 84h632q18 0 30 13t12 31q0 10-6 20l-152 276q-24 44-74 44H346L308 624l-2 6q0 10 10 10h494v86h-512q-34 0-59-26t-25-60q0-20 10-40l58-106L128 170H42v-84z m256 682q34 0 60 26t26 60-26 59-60 25-59-25-25-59 25-60T298 768z" fill="" p-id="1916"></path></svg>