<svg t="1593941032809" class="icon" viewBox="0 0 1024 1024" version="1.1" xmlns="http://www.w3.org/2000/svg" p-id="8514" width="48" height="48"><path d="M68.4 590.616C31.326 681.38 24.934 767.034 54.337 782.374c20.455 11.505 53.692-14.062 84.374-60.085 11.505 51.136 42.187 95.88 84.373 132.953-44.743 16.62-74.146 44.743-74.146 75.425 0 51.135 79.259 93.322 176.418 93.322 88.208 0 161.076-33.238 175.138-77.982h20.455c14.06 44.744 86.93 77.982 175.138 77.982 98.437 0 176.418-40.909 176.418-93.322 0-30.682-29.403-58.806-74.146-75.425 42.186-37.074 72.868-81.817 84.374-132.953 30.68 46.023 62.64 71.59 84.373 60.085 30.682-15.34 24.29-102.271-14.062-191.758-29.403-70.312-69.033-122.726-99.715-134.23 0-3.837 1.28-8.95 1.28-14.064 0-26.845-7.67-52.413-20.455-72.868v-5.113c0-12.784-2.556-24.29-7.67-34.517C818.814 145.736 701.2 0 510.722 0 320.242 0 202.63 145.736 194.959 329.824c-5.113 10.227-7.67 21.733-7.67 34.517v5.113c-12.783 20.455-20.454 46.023-20.454 72.87v14.061c-28.124 11.505-69.033 62.64-98.435 134.23z" p-id="8515"></path></svg>