<svg t="1593940986381" class="icon" viewBox="0 0 1152 1024" version="1.1" xmlns="http://www.w3.org/2000/svg" p-id="7777" width="48" height="48"><path d="M770.4 335.2c12.8 0 25.2 0.6 37.6 2.2C774.8 180.6 606.6 64 415.4 64 201 64 26 209.6 26 394.8c0 106.8 58.6 195 155.8 263.2l-38.6 117.2 136-68.2c48.8 9.6 87.6 19.4 136.4 19.4 12.4 0 24.2-0.6 36.6-1.6-8-25.8-12.4-53.2-12.4-81.6-0.2-169.8 145.8-308 330.6-308z m-209-105.8c29 0 48.4 19.4 48.4 48.8 0 29-19.4 48.4-48.4 48.4-29.6 0-58.6-19.4-58.6-48.4 0.2-29.4 29.2-48.8 58.6-48.8z m-272.8 97.2c-29 0-58.6-19.4-58.6-48.4 0-29.6 29.6-48.8 58.6-48.8 29.6 0 48.8 19.4 48.8 48.8 0 29.2-19.2 48.4-48.8 48.4zM1126 638.8c0-155.8-155.8-282.6-330.8-282.6-185.4 0-330.8 126.8-330.8 282.6S610 921.4 795.2 921.4c38.6 0 77.8-10.2 117.2-19.8l106.8 58.6-29.6-97.2C1068 804.2 1126 726.4 1126 638.8z m-438.2-49c-19.4 0-38.6-19.4-38.6-39.2 0-19.4 19.4-38.6 38.6-38.6 29.6 0 48.8 19.4 48.8 38.6 0 20-19.4 39.2-48.8 39.2z m214.2 0c-19.4 0-38.6-19.4-38.6-39.2 0-19.4 19.4-38.6 38.6-38.6 29 0 48.8 19.4 48.8 38.6 0.2 20-19.8 39.2-48.8 39.2z" p-id="7778"></path></svg>